<?xml version="1.0" encoding="utf-8"?>
<!-- Generator: Adobe Illustrator 26.0.1, SVG Export Plug-In . SVG Version: 6.00 Build 0)  -->
<svg version="1.1" id="Layer_1" xmlns="http://www.w3.org/2000/svg" xmlns:xlink="http://www.w3.org/1999/xlink" x="0px" y="0px"
	 viewBox="0 0 612 792" style="enable-background:new 0 0 612 792;" xml:space="preserve">
<style type="text/css">
	.st0{fill:#326FB7;}
	.st1{fill:#B7B7B7;}
</style>
<path class="st0" d="M231.25,348.79l-2.82,15.57c-0.7,3.86-4.32,6.88-8.25,6.88h-66.16c-1.52,0-3.03,1.25-3.3,2.75l-1.24,6.82
	c-0.12,0.65,0.02,1.25,0.39,1.69c0.36,0.44,0.93,0.68,1.6,0.68h48.91c8.01,0,14.99,3.08,19.66,8.67c4.66,5.58,6.45,12.99,5.03,20.84
	l-1.83,10.13c-2.9,16.07-18.57,29.14-34.91,29.14l-74.15-0.01c-4.04,0-6.8-3.28-6.07-7.26l2.95-16.34c0.7-3.86,4.32-6.88,8.25-6.88
	h68c1.52,0,3.03-1.26,3.3-2.75l0.92-5.12c0.12-0.65-0.02-1.25-0.38-1.69c-0.37-0.44-0.94-0.68-1.6-0.68h-48.91
	c-8.01,0-14.99-3.08-19.66-8.67c-4.66-5.58-6.45-12.99-5.03-20.85l2-11.05c2.9-16.07,18.56-29.14,34.91-29.14h72.32
	C229.22,341.51,231.97,344.79,231.25,348.79z"/>
<path class="st1" d="M503.16,348.79l-2.82,15.57c-0.7,3.86-4.32,6.88-8.25,6.88h-66.16c-1.52,0-3.03,1.25-3.29,2.75l-1.24,6.82
	c-0.12,0.65,0.02,1.25,0.39,1.69c0.36,0.44,0.93,0.68,1.6,0.68h48.91c8.01,0,14.99,3.08,19.66,8.67c4.67,5.58,6.45,12.99,5.04,20.84
	l-1.83,10.13c-2.9,16.07-18.56,29.14-34.91,29.14l-74.15-0.01c-4.04,0-6.8-3.28-6.07-7.26l2.95-16.34c0.7-3.86,4.32-6.88,8.25-6.88
	h68c1.52,0,3.03-1.26,3.29-2.75l0.92-5.12c0.12-0.65-0.02-1.25-0.38-1.69c-0.37-0.44-0.94-0.68-1.6-0.68h-48.91
	c-8.01,0-14.99-3.08-19.66-8.67c-4.66-5.58-6.45-12.99-5.03-20.85l2-11.05c2.9-16.07,18.56-29.14,34.91-29.14h72.32
	C501.12,341.51,503.88,344.79,503.16,348.79z"/>
<path class="st1" d="M382.01,340.73h-23.29l23.03,42.25l-36.2,49.82h-5.65l-2,11.09c-0.35,1.92,0.09,3.73,1.24,5.11
	c1.16,1.39,2.87,2.15,4.83,2.15h18.46c3.92,0,7.54-3.02,8.25-6.88l17.4-96.27C388.8,344.03,386.07,340.73,382.01,340.73z"/>
<path class="st0" d="M332.72,432.8h5.65l36.2-49.82l-23.03-42.25h-0.41c-2.73,0-5.51,1.56-7.06,3.96l-45.03,67.52
	c-0.13,0.2-0.33,0.19-0.44,0.18c-0.08-0.01-0.35-0.08-0.44-0.36l-18.51-67.05c-0.75-2.59-3.08-4.25-5.93-4.25h-23.7
	c-3.92,0-7.55,3.02-8.25,6.88l-17.4,96.28c-0.72,3.97,2.02,7.26,6.07,7.26h18.46c3.92,0,7.54-3.02,8.25-6.88l6.16-34.07l11.38,36.7
	c0.75,2.58,3.08,4.26,5.93,4.26h24.45c2.73,0,5.5-1.56,7.06-3.96l24.64-36.83L332.72,432.8z"/>
</svg>
